# xmcd CD database file
#
# Track frame offsets:
#	150
#	29990
#	63075
#	88140
#	112322
#	146132
#	176527
#	199572
#	241662
#	259787
#	277870
#
# Disc length: 4387 seconds
#
# Revision: 0
# Processed by: cddbd v1.5.1PL2 Copyright (c) Steve Scherf et al.
# Submitted via: CDex 1.51
#
DISCID=9f11210b
DTITLE=Various Artist - Black, White'n Blues
DYEAR=1995
DGENRE=Blues
TTITLE0=Story Of The Blues
TTITLE1=Good Morning Schoolgirl (Live)
TTITLE2=It's My Own Fault Darlin'
TTITLE3=You Keep Sayin' Taht You're Leavin'
TTITLE4=Blues Deluxe (Live)
TTITLE5=Change Is Gonna Come (Live)
TTITLE6=Whipping Boy
TTITLE7=If Trouble Was Money
TTITLE8=Someday The Sun Won't Shine For You (Live)
TTITLE9=Para Amarte Una Vez Más
TTITLE10=Mistreated
EXTD=YEAR: 1995
EXTT0=
EXTT1=
EXTT2=
EXTT3=
EXTT4=
EXTT5=
EXTT6=
EXTT7=
EXTT8=
EXTT9=
EXTT10=
PLAYORDER=
